<?xml version="1.0" encoding="UTF-8" standalone="no"?>
<svg
   viewBox="0 0 36 26"
   version="1.1"
   id="svg1"
   sodipodi:docname="sapphic.svg"
   xml:space="preserve"
   inkscape:version="1.4 (86a8ad7, 2024-10-11)"
   width="36"
   height="26"
   xmlns:inkscape="http://www.inkscape.org/namespaces/inkscape"
   xmlns:sodipodi="http://sodipodi.sourceforge.net/DTD/sodipodi-0.dtd"
   xmlns="http://www.w3.org/2000/svg"
   xmlns:svg="http://www.w3.org/2000/svg"><defs
     id="defs1" /><sodipodi:namedview
     id="namedview1"
     pagecolor="#505050"
     bordercolor="#eeeeee"
     borderopacity="1"
     inkscape:showpageshadow="0"
     inkscape:pageopacity="0"
     inkscape:pagecheckerboard="0"
     inkscape:deskcolor="#505050"
     inkscape:zoom="18.055556"
     inkscape:cx="17.390769"
     inkscape:cy="13.652307"
     inkscape:window-width="1920"
     inkscape:window-height="1057"
     inkscape:window-x="-8"
     inkscape:window-y="-8"
     inkscape:window-maximized="1"
     inkscape:current-layer="svg1" /><path
     id="rect841-7"
     style="fill:#fd8ba8;fill-opacity:1;fill-rule:evenodd;stroke-width:0.0607335"
     d="M 4,0 C 2.984,0 2.0595156,0.3818594 1.3535156,1.0058594 0.52451562,1.7388594 0,2.807 0,4 V 9.400391 L 18,13 36,9.400391 V 4 C 36,1.7909995 34.209,0 32,0 Z M 18,13 0,16.599609 V 21.5 c 0,1.48 0.5368125,2.682656 1.3828125,3.472656 l -0.029297,0.02148 C 2.0595156,25.618142 2.984,26 4,26 h 28 c 2.209,0 4,-1.790999 4,-4 v -5.400391 z" /><path
     id="rect846"
     style="fill:#fbf2ff;fill-opacity:1;fill-rule:evenodd;stroke-width:0.0271608"
     d="m 0,8.654297 v 8.691406 H 36 V 13 8.654297 Z" /><path
     style="fill:#c76bc5;fill-opacity:1;stroke-width:0.00869147"
     d="m 16.202389,17.049559 c -0.248365,-0.02398 -0.577889,-0.132853 -0.748454,-0.247289 -0.126327,-0.08476 -0.249381,-0.230836 -0.313418,-0.372066 -0.183065,-0.403742 -0.150087,-0.98753 0.08257,-1.46159 0.08337,-0.169874 0.170199,-0.263233 0.366598,-0.394165 0.332184,-0.221452 0.97021,-0.477135 1.647177,-0.660092 l 0.09297,-0.02512 0.0939,0.04886 c 0.162442,0.08452 0.289812,0.176977 0.42344,0.307365 l 0.07307,0.0713 -0.0076,0.126026 c -0.0587,0.970499 -0.209105,1.641802 -0.449824,2.00773 -0.0653,0.09926 -0.266445,0.300332 -0.37105,0.370911 -0.268427,0.18111 -0.571413,0.258832 -0.88935,0.228138 z"
     id="path837" /><path
     style="fill:#c76bc5;fill-opacity:1;stroke-width:0.00869147"
     d="m 19.531882,17.04964 c -0.220387,-0.02131 -0.43149,-0.09855 -0.623626,-0.228191 -0.104655,-0.07061 -0.3055,-0.271426 -0.372105,-0.372046 -0.238212,-0.359873 -0.390297,-1.039893 -0.44877,-2.006594 l -0.0076,-0.126027 0.07307,-0.0713 c 0.133627,-0.130388 0.260997,-0.222842 0.423439,-0.307364 l 0.0939,-0.04886 0.09297,0.02513 c 0.388769,0.105068 0.8522,0.265089 1.157005,0.39951 0.36023,0.158862 0.625951,0.329694 0.754369,0.484983 0.06109,0.07387 0.147646,0.249596 0.197075,0.400088 0.145202,0.442076 0.140755,0.894128 -0.01211,1.231265 -0.06404,0.14123 -0.18709,0.28731 -0.313417,0.372066 -0.124201,0.08333 -0.388732,0.185063 -0.574347,0.220881 -0.169127,0.03264 -0.296632,0.04031 -0.439831,0.02646 z"
     id="path835" /><path
     style="fill:#c76bc5;fill-opacity:1;stroke-width:0.00869147"
     d="m 15.357791,13.964339 c -0.334373,-0.01593 -0.617999,-0.06826 -0.75203,-0.138767 -0.220744,-0.116118 -0.398156,-0.380074 -0.467714,-0.695871 -0.03424,-0.155468 -0.04361,-0.25094 -0.04298,-0.438252 9.26e-4,-0.27654 0.04273,-0.549476 0.121124,-0.790923 0.09227,-0.284171 0.330006,-0.516774 0.611419,-0.598222 0.11299,-0.0327 0.200603,-0.04368 0.343313,-0.04303 0.480078,0.0022 0.970902,0.233183 1.47755,0.695307 0.240185,0.219078 0.519214,0.540218 0.693349,0.797991 0.05607,0.083 0.0589,0.08972 0.06772,0.160479 0.02055,0.164912 -0.0248,0.381754 -0.122702,0.5867 -0.05633,0.117927 -0.102614,0.186738 -0.143986,0.214085 -0.200414,0.132479 -0.657976,0.222325 -1.276616,0.250673 -0.209079,0.0096 -0.304336,0.0095 -0.508451,-1.63e-4 z"
     id="path833" /><path
     style="fill:#c76bc5;fill-opacity:1;stroke-width:0.00869147"
     d="m 20.11181,13.964695 c -0.686476,-0.03283 -1.212484,-0.156659 -1.313002,-0.309089 -0.146241,-0.221768 -0.234243,-0.535669 -0.208263,-0.742868 0.01032,-0.08229 0.02297,-0.104962 0.164685,-0.295168 0.341442,-0.45827 0.750804,-0.842351 1.150187,-1.079153 0.478362,-0.283632 0.995593,-0.358945 1.370239,-0.199518 0.229254,0.09755 0.425973,0.313885 0.507615,0.558214 0.120467,0.360524 0.157165,0.860655 0.08784,1.197155 -0.0381,0.184931 -0.115297,0.365414 -0.211243,0.493856 -0.08878,0.118842 -0.206778,0.216539 -0.314334,0.260243 -0.06529,0.02653 -0.196615,0.05976 -0.303525,0.07681 -0.227696,0.03631 -0.635242,0.05362 -0.930201,0.03951 z"
     id="path831" /><circle
     style="fill:#f996c9;fill-opacity:1;fill-rule:evenodd;stroke:none;stroke-width:0.00135804;stroke-miterlimit:4;stroke-dasharray:none"
     id="path825"
     cx="18.003811"
     cy="13.427246"
     r="0.5826422" /><path
     style="fill:#fff71e;fill-opacity:1;stroke-width:0.00869147"
     d="m 17.944322,13.77321 c -0.180562,-0.03096 -0.31642,-0.219907 -0.284045,-0.395037 0.04389,-0.237448 0.287301,-0.36205 0.501425,-0.256685 0.129724,0.06383 0.209114,0.216905 0.186222,0.35905 -0.03126,0.194101 -0.212405,0.325458 -0.403602,0.292672 z"
     id="path829" /><path
     style="fill:#c76bc5;fill-opacity:1;stroke-width:0.00869147"
     d="m 17.887008,12.643467 c -0.05019,-0.0033 -0.108011,-0.0089 -0.128485,-0.01244 -0.0867,-0.01488 -0.31674,-0.196916 -0.571178,-0.451974 -0.490299,-0.491493 -0.837692,-1.032052 -0.956158,-1.487823 -0.05567,-0.214181 -0.06701,-0.437967 -0.03099,-0.611569 0.06301,-0.303695 0.246534,-0.555252 0.557522,-0.764198 0.281024,-0.188813 0.582774,-0.303106 0.933733,-0.353665 0.133909,-0.01929 0.447835,-0.01872 0.599712,0.0011 0.463466,0.06045 0.924842,0.276064 1.2075,0.564293 0.1601,0.163255 0.26796,0.36827 0.306598,0.582767 0.01881,0.104417 0.01844,0.30396 -7.55e-4,0.41298 -0.04575,0.259767 -0.152993,0.531781 -0.319046,0.809216 -0.26882,0.449134 -0.76481,0.994213 -1.122707,1.233827 -0.08743,0.05853 -0.112045,0.06676 -0.219513,0.07338 -0.04293,0.0026 -0.09761,0.006 -0.121513,0.0075 -0.0239,0.0015 -0.08452,-8.1e-5 -0.134718,-0.0034 z"
     id="path823" /></svg>
